<svg width="404" height="377" viewBox="0 0 404 377" fill="none" xmlns="http://www.w3.org/2000/svg">
<path d="M187.775 254.7C213.498 254.7 234.35 227.904 234.35 194.85C234.35 161.796 213.498 135 187.775 135C162.053 135 141.2 161.796 141.2 194.85C141.2 227.904 162.053 254.7 187.775 254.7Z" fill="#F8A62B"/>
<path d="M185.75 160.2C212.591 160.2 234.35 141.564 234.35 118.575C234.35 95.5862 212.591 76.95 185.75 76.95C158.909 76.95 137.15 95.5862 137.15 118.575C137.15 141.564 158.909 160.2 185.75 160.2Z" fill="#F8A62B"/>
<path d="M185.75 157.095C207.372 157.095 224.9 142.083 224.9 123.565C224.9 105.048 207.372 90.036 185.75 90.036C164.128 90.036 146.6 105.048 146.6 123.565C146.6 142.083 164.128 157.095 185.75 157.095Z" fill="#20409A"/>
<path d="M250.325 211.01L254.825 208.413C259.824 205.529 261.539 199.134 258.65 194.135L238.953 160.016C236.069 155.016 229.674 153.302 224.675 156.191L220.175 158.787C215.175 161.672 213.461 168.066 216.35 173.066L236.046 207.185C238.935 212.184 245.325 213.894 250.325 211.01Z" fill="#F8A62B"/>
<path d="M190.7 300.703V305.901C190.7 311.675 195.38 316.355 201.154 316.355H232.901C238.675 316.355 243.355 311.675 243.355 305.901V300.703C243.355 294.93 238.675 290.25 232.901 290.25H201.154C195.38 290.25 190.7 294.93 190.7 300.703Z" fill="#F8A62B"/>
<path d="M133.55 300.703V305.901C133.55 311.675 138.23 316.355 144.003 316.355H175.751C181.524 316.355 186.204 311.675 186.204 305.901V300.703C186.204 294.93 181.524 290.25 175.751 290.25H144.003C138.23 290.25 133.55 294.93 133.55 300.703Z" fill="#F8A62B"/>
<path d="M133.1 312.525C133.1 315.382 135.418 317.7 138.275 317.7H180.575C183.433 317.7 185.75 315.382 185.75 312.525C185.75 309.668 183.433 307.35 180.575 307.35H138.275C135.418 307.35 133.1 309.668 133.1 312.525Z" fill="#20409A"/>
<path d="M178.1 222.075C178.1 224.932 180.418 227.25 183.275 227.25H225.575C228.433 227.25 230.75 224.932 230.75 222.075C230.75 219.217 228.433 216.9 225.575 216.9H183.275C180.418 216.9 178.1 219.217 178.1 222.075Z" fill="#20409A"/>
<path d="M144.35 222.075C144.35 224.932 146.668 227.25 149.525 227.25H191.825C194.683 227.25 197 224.932 197 222.075C197 219.217 194.683 216.9 191.825 216.9H149.525C146.668 216.9 144.35 219.217 144.35 222.075Z" fill="#20409A"/>
<path d="M190.7 312.525C190.7 315.382 193.018 317.7 195.875 317.7H238.175C241.033 317.7 243.35 315.382 243.35 312.525C243.35 309.668 241.033 307.35 238.175 307.35H195.875C193.018 307.35 190.7 309.668 190.7 312.525Z" fill="#20409A"/>
<path d="M162.003 307.35H175.301C181.074 307.35 185.754 302.67 185.754 296.897V242.203C185.754 236.43 181.074 231.75 175.301 231.75H162.003C156.23 231.75 151.55 236.43 151.55 242.203V296.901C151.55 302.67 156.23 307.35 162.003 307.35Z" fill="#F8A62B"/>
<path d="M201.154 307.35H214.451C220.225 307.35 224.905 302.67 224.905 296.897V242.203C224.905 236.43 220.225 231.75 214.451 231.75H201.154C195.38 231.75 190.7 236.43 190.7 242.203V296.901C190.7 302.67 195.38 307.35 201.154 307.35Z" fill="#F8A62B"/>
<path d="M121.783 212.369L126.467 214.614C131.674 217.107 137.915 214.907 140.408 209.7L157.427 174.168C159.92 168.962 157.72 162.72 152.513 160.227L147.829 157.982C142.622 155.489 136.381 157.689 133.888 162.896L116.869 198.428C114.38 203.634 116.576 209.876 121.783 212.369Z" fill="#F8A62B"/>
<path d="M131.565 247.311L136.686 246.438C142.379 245.47 146.204 240.07 145.236 234.378L139.958 203.391C138.99 197.699 133.59 193.874 127.898 194.841L122.777 195.714C117.084 196.682 113.259 202.081 114.227 207.774L119.505 238.761C120.477 244.453 125.877 248.283 131.565 247.311Z" fill="#F8A62B"/>
<path d="M241.082 213.327L245.024 216.711C249.403 220.473 256 219.973 259.762 215.595L285.434 185.715C289.196 181.337 288.697 174.74 284.318 170.978L280.376 167.593C275.998 163.831 269.401 164.331 265.639 168.71L239.966 198.589C236.204 202.963 236.704 209.565 241.082 213.327Z" fill="#F8A62B"/>
<path d="M129.207 234.32C123.978 236.768 121.724 242.991 124.172 248.216L125.54 251.132C127.988 256.361 134.211 258.615 139.436 256.167C144.665 253.719 146.919 247.496 144.471 242.271L143.103 239.355C140.655 234.126 134.432 231.872 129.207 234.32Z" fill="#F8A62B"/>
<path d="M127.965 249.907L128.834 249.669C130.031 249.34 131.273 250.042 131.601 251.239L135.071 263.821C135.399 265.018 134.697 266.26 133.5 266.589L132.632 266.827C131.435 267.156 130.193 266.454 129.864 265.257L126.395 252.675C126.066 251.478 126.768 250.236 127.965 249.907Z" fill="#F8A62B"/>
<path d="M134.805 252.689L135.674 252.45C136.871 252.121 138.113 252.823 138.441 254.02L141.911 266.602C142.239 267.799 141.537 269.041 140.34 269.37L139.472 269.608C138.275 269.937 137.033 269.235 136.704 268.038L133.235 255.456C132.902 254.259 133.604 253.022 134.805 252.689Z" fill="#F8A62B"/>
<path d="M142.577 246.24L143.364 245.803C144.453 245.2 145.821 245.596 146.424 246.685L152.742 258.106C153.345 259.195 152.949 260.563 151.86 261.166L151.073 261.603C149.984 262.206 148.616 261.81 148.013 260.721L141.695 249.3C141.096 248.206 141.492 246.839 142.577 246.24Z" fill="#F8A62B"/>
<path d="M137.555 238.122L138 237.339C138.612 236.259 139.989 235.881 141.069 236.493L152.418 242.937C153.498 243.549 153.876 244.926 153.264 246.006L152.819 246.789C152.207 247.869 150.83 248.247 149.75 247.635L138.401 241.191C137.321 240.575 136.943 239.202 137.555 238.122Z" fill="#F8A62B"/>
<path d="M139.485 251.514L140.318 251.176C141.47 250.708 142.784 251.262 143.252 252.414L148.175 264.501C148.643 265.653 148.089 266.967 146.937 267.435L146.105 267.772C144.953 268.24 143.639 267.687 143.171 266.535L138.248 254.448C137.78 253.296 138.333 251.982 139.485 251.514Z" fill="#F8A62B"/>
<path d="M290.708 169.074L289.961 168.57C288.93 167.877 288.656 166.477 289.349 165.447L296.63 154.615C297.323 153.585 298.722 153.311 299.753 154.004L300.5 154.508C301.53 155.201 301.805 156.6 301.112 157.631L293.831 168.462C293.133 169.492 291.738 169.767 290.708 169.074Z" fill="#F8A62B"/>
<path d="M288.364 162.077L287.617 161.573C286.586 160.88 286.312 159.48 287.005 158.45L294.286 147.618C294.979 146.588 296.378 146.313 297.409 147.006L298.156 147.51C299.186 148.203 299.461 149.603 298.768 150.633L291.487 161.465C290.789 162.495 289.394 162.77 288.364 162.077Z" fill="#F8A62B"/>
<path d="M278.401 160.385L277.559 160.07C276.394 159.638 275.8 158.342 276.232 157.176L280.777 144.945C281.209 143.779 282.505 143.185 283.67 143.617L284.512 143.932C285.677 144.364 286.271 145.66 285.839 146.826L281.294 159.057C280.862 160.223 279.566 160.817 278.401 160.385Z" fill="#F8A62B"/>
<path d="M275.516 169.483L274.634 169.655C273.415 169.893 272.231 169.097 271.993 167.882L269.482 155.074C269.243 153.855 270.04 152.671 271.255 152.433L272.137 152.262C273.356 152.023 274.54 152.82 274.778 154.035L277.289 166.842C277.532 168.062 276.736 169.245 275.516 169.483Z" fill="#F8A62B"/>
<path d="M284.422 159.291L283.621 158.881C282.514 158.314 282.077 156.955 282.649 155.853L288.611 144.243C289.178 143.136 290.537 142.699 291.64 143.271L292.441 143.68C293.548 144.247 293.984 145.606 293.413 146.709L287.45 158.319C286.883 159.421 285.529 159.858 284.422 159.291Z" fill="#F8A62B"/>
<path d="M278.077 178.295C283.342 180.666 289.529 178.317 291.901 173.057L293.224 170.118C295.595 164.853 293.246 158.666 287.986 156.294C282.721 153.923 276.533 156.272 274.162 161.532L272.839 164.471C270.467 169.736 272.812 175.923 278.077 178.295Z" fill="#F8A62B"/>
<path d="M140.309 155.803C139.737 158.382 140.241 161.469 141.438 162.706L159.137 180.976C160.334 182.209 161.769 181.12 162.341 178.546C162.912 175.968 162.408 172.881 161.211 171.643L143.513 153.373C142.316 152.136 140.885 153.225 140.309 155.803Z" fill="#20409A"/>
<path d="M232.541 154.003C233.112 156.582 232.608 159.669 231.411 160.906L213.713 179.177C212.516 180.41 211.08 179.32 210.509 176.746C209.937 174.168 210.441 171.081 211.638 169.843L229.337 151.573C230.534 150.336 231.965 151.425 232.541 154.003Z" fill="#20409A"/>
<path d="M119.825 215.55C123.428 215.55 126.35 211.118 126.35 205.65C126.35 200.182 123.428 195.75 119.825 195.75C116.221 195.75 113.3 200.182 113.3 205.65C113.3 211.118 116.221 215.55 119.825 215.55Z" fill="#20409A"/>
<path d="M155.375 280.8C158.979 280.8 161.9 276.368 161.9 270.9C161.9 265.432 158.979 261 155.375 261C151.771 261 148.85 265.432 148.85 270.9C148.85 276.368 151.771 280.8 155.375 280.8Z" fill="#20409A"/>
<path d="M221.525 280.8C225.129 280.8 228.05 276.368 228.05 270.9C228.05 265.432 225.129 261 221.525 261C217.921 261 215 265.432 215 270.9C215 276.368 217.921 280.8 221.525 280.8Z" fill="#20409A"/>
<path d="M252.463 221.57C257.927 221.373 262.25 218.293 262.12 214.692C261.99 211.091 257.455 208.332 251.992 208.529C246.528 208.727 242.204 211.806 242.334 215.407C242.464 219.008 246.999 221.767 252.463 221.57Z" fill="#20409A"/>
<path opacity="0.6" d="M212.75 130.05C215.235 130.05 217.25 126.927 217.25 123.075C217.25 119.223 215.235 116.1 212.75 116.1C210.265 116.1 208.25 119.223 208.25 123.075C208.25 126.927 210.265 130.05 212.75 130.05Z" fill="#F8A62B"/>
<path opacity="0.6" d="M205.1 111.6C206.343 111.6 207.35 109.988 207.35 108C207.35 106.012 206.343 104.4 205.1 104.4C203.857 104.4 202.85 106.012 202.85 108C202.85 109.988 203.857 111.6 205.1 111.6Z" fill="#F8A62B"/>
<path d="M202.598 208.8H170.706C167.088 208.8 164.154 205.866 164.154 202.248V182.507C164.154 178.889 167.088 175.955 170.706 175.955H202.598C206.216 175.955 209.15 178.889 209.15 182.507V202.248C209.15 205.866 206.216 208.8 202.598 208.8Z" fill="#20409A"/>
<path d="M173.712 200.475C173.712 201.906 174.869 203.062 176.3 203.062H197.45C198.881 203.062 200.037 201.906 200.037 200.475C200.037 199.044 198.881 197.887 197.45 197.887H176.3C174.869 197.887 173.712 199.044 173.712 200.475Z" fill="#F8A62B"/>
<path d="M186.875 191.25C188.491 191.25 189.8 189.94 189.8 188.325C189.8 186.71 188.491 185.4 186.875 185.4C185.26 185.4 183.95 186.71 183.95 188.325C183.95 189.94 185.26 191.25 186.875 191.25Z" fill="#F8A62B"/>
<path d="M174.275 191.25C175.891 191.25 177.2 189.94 177.2 188.325C177.2 186.71 175.891 185.4 174.275 185.4C172.66 185.4 171.35 186.71 171.35 188.325C171.35 189.94 172.66 191.25 174.275 191.25Z" fill="#F8A62B"/>
<path d="M198.125 191.25C199.741 191.25 201.05 189.94 201.05 188.325C201.05 186.71 199.741 185.4 198.125 185.4C196.51 185.4 195.2 186.71 195.2 188.325C195.2 189.94 196.51 191.25 198.125 191.25Z" fill="#F8A62B"/>
<path d="M125 36H128V39H131V42H134V48H137V51H131V48H128V42H122V51H116V30H122V39H125V36ZM137 30V33H134V36H128V33H131V30H137ZM143 51V48H140V39H143V36H158V39H161V48H158V51H143ZM146 48H155V39H146V48ZM167 51V48H164V39H167V36H182V39H185V42H179V39H170V48H179V45H185V48H182V51H167ZM197 39V42H194V51H188V36H194V39H197ZM209 36V51H203V42H200V39H203V36H209ZM197 42H200V48H197V42ZM218 45H221V48H218V51H212V36H218V45ZM233 36V51H227V42H224V39H227V36H233ZM221 42H224V45H221V42ZM248 39H251V42H254V45H257V51H251V45H242V51H236V36H242V42H248V39ZM257 36V39H251V36H257Z" fill="#E5E5E5"/>
</svg>
