<svg width="450" height="450" viewBox="0 0 450 450" fill="none" xmlns="http://www.w3.org/2000/svg">
<path d="M233.775 254.7C259.498 254.7 280.35 227.904 280.35 194.85C280.35 161.796 259.498 135 233.775 135C208.052 135 187.2 161.796 187.2 194.85C187.2 227.904 208.052 254.7 233.775 254.7Z" fill="#F8A62B"/>
<path d="M231.75 160.2C258.591 160.2 280.35 141.564 280.35 118.575C280.35 95.5862 258.591 76.95 231.75 76.95C204.909 76.95 183.15 95.5862 183.15 118.575C183.15 141.564 204.909 160.2 231.75 160.2Z" fill="#F8A62B"/>
<path d="M231.75 157.095C253.372 157.095 270.9 142.083 270.9 123.566C270.9 105.048 253.372 90.036 231.75 90.036C210.128 90.036 192.6 105.048 192.6 123.566C192.6 142.083 210.128 157.095 231.75 157.095Z" fill="#20409A"/>
<path d="M296.325 211.01L300.825 208.413C305.825 205.529 307.539 199.134 304.65 194.135L284.954 160.016C282.069 155.016 275.675 153.302 270.675 156.191L266.175 158.787C261.176 161.672 259.461 168.066 262.35 173.066L282.047 207.185C284.936 212.184 291.326 213.894 296.325 211.01Z" fill="#F8A62B"/>
<path d="M236.7 300.703V305.901C236.7 311.675 241.38 316.355 247.154 316.355H278.901C284.675 316.355 289.355 311.675 289.355 305.901V300.703C289.355 294.93 284.675 290.25 278.901 290.25H247.154C241.38 290.25 236.7 294.93 236.7 300.703Z" fill="#F8A62B"/>
<path d="M179.55 300.703V305.901C179.55 311.675 184.23 316.355 190.003 316.355H221.751C227.524 316.355 232.204 311.675 232.204 305.901V300.703C232.204 294.93 227.524 290.25 221.751 290.25H190.003C184.23 290.25 179.55 294.93 179.55 300.703Z" fill="#F8A62B"/>
<path d="M179.1 312.525C179.1 315.382 181.417 317.7 184.275 317.7H226.575C229.432 317.7 231.75 315.382 231.75 312.525C231.75 309.668 229.432 307.35 226.575 307.35H184.275C181.417 307.35 179.1 309.668 179.1 312.525Z" fill="#20409A"/>
<path d="M224.1 222.075C224.1 224.932 226.417 227.25 229.275 227.25H271.575C274.432 227.25 276.75 224.932 276.75 222.075C276.75 219.217 274.432 216.9 271.575 216.9H229.275C226.417 216.9 224.1 219.217 224.1 222.075Z" fill="#20409A"/>
<path d="M190.35 222.075C190.35 224.932 192.668 227.25 195.525 227.25H237.825C240.683 227.25 243 224.932 243 222.075C243 219.217 240.683 216.9 237.825 216.9H195.525C192.668 216.9 190.35 219.217 190.35 222.075Z" fill="#20409A"/>
<path d="M236.7 312.525C236.7 315.382 239.018 317.7 241.875 317.7H284.175C287.033 317.7 289.35 315.382 289.35 312.525C289.35 309.668 287.033 307.35 284.175 307.35H241.875C239.018 307.35 236.7 309.668 236.7 312.525Z" fill="#20409A"/>
<path d="M208.003 307.35H221.301C227.074 307.35 231.755 302.67 231.755 296.897V242.203C231.755 236.43 227.074 231.75 221.301 231.75H208.003C202.23 231.75 197.55 236.43 197.55 242.203V296.901C197.55 302.67 202.23 307.35 208.003 307.35Z" fill="#F8A62B"/>
<path d="M247.154 307.35H260.451C266.225 307.35 270.905 302.67 270.905 296.897V242.203C270.905 236.43 266.225 231.75 260.451 231.75H247.154C241.38 231.75 236.7 236.43 236.7 242.203V296.901C236.7 302.67 241.38 307.35 247.154 307.35Z" fill="#F8A62B"/>
<path d="M167.783 212.369L172.467 214.614C177.674 217.107 183.915 214.907 186.408 209.7L203.427 174.168C205.92 168.962 203.72 162.72 198.513 160.227L193.829 157.982C188.622 155.489 182.381 157.689 179.888 162.896L162.868 198.428C160.38 203.634 162.576 209.876 167.783 212.369Z" fill="#F8A62B"/>
<path d="M177.565 247.311L182.686 246.438C188.379 245.47 192.204 240.07 191.236 234.378L185.958 203.391C184.99 197.699 179.59 193.874 173.898 194.841L168.777 195.714C163.084 196.682 159.259 202.081 160.227 207.774L165.505 238.761C166.477 244.453 171.877 248.283 177.565 247.311Z" fill="#F8A62B"/>
<path d="M287.082 213.327L291.024 216.711C295.403 220.473 302 219.973 305.762 215.595L331.434 185.715C335.196 181.337 334.697 174.74 330.318 170.978L326.376 167.593C321.998 163.831 315.401 164.331 311.639 168.71L285.966 198.589C282.204 202.963 282.704 209.565 287.082 213.327Z" fill="#F8A62B"/>
<path d="M175.207 234.32C169.978 236.768 167.724 242.991 170.172 248.216L171.54 251.132C173.988 256.361 180.211 258.615 185.436 256.167C190.665 253.719 192.919 247.496 190.471 242.271L189.104 239.355C186.656 234.126 180.432 231.872 175.207 234.32Z" fill="#F8A62B"/>
<path d="M173.966 249.907L174.834 249.669C176.031 249.34 177.273 250.042 177.602 251.239L181.071 263.821C181.4 265.018 180.698 266.26 179.501 266.589L178.632 266.827C177.435 267.156 176.193 266.454 175.865 265.257L172.395 252.675C172.067 251.478 172.768 250.236 173.966 249.907Z" fill="#F8A62B"/>
<path d="M180.806 252.689L181.674 252.45C182.871 252.122 184.113 252.824 184.442 254.021L187.911 266.602C188.24 267.799 187.538 269.041 186.341 269.37L185.472 269.608C184.275 269.937 183.033 269.235 182.705 268.038L179.235 255.456C178.902 254.259 179.604 253.022 180.806 252.689Z" fill="#F8A62B"/>
<path d="M188.577 246.24L189.365 245.803C190.454 245.2 191.822 245.596 192.425 246.685L198.743 258.106C199.346 259.195 198.95 260.563 197.861 261.166L197.073 261.603C195.984 262.206 194.616 261.81 194.013 260.721L187.695 249.3C187.097 248.206 187.493 246.839 188.577 246.24Z" fill="#F8A62B"/>
<path d="M183.555 238.122L184.001 237.339C184.613 236.259 185.99 235.881 187.07 236.493L198.419 242.937C199.499 243.549 199.877 244.926 199.265 246.006L198.819 246.789C198.207 247.869 196.83 248.247 195.75 247.635L184.401 241.191C183.321 240.575 182.943 239.202 183.555 238.122Z" fill="#F8A62B"/>
<path d="M185.486 251.514L186.318 251.176C187.47 250.708 188.784 251.262 189.252 252.414L194.175 264.501C194.643 265.653 194.09 266.967 192.938 267.435L192.105 267.772C190.953 268.24 189.639 267.687 189.171 266.535L184.248 254.448C183.78 253.296 184.334 251.982 185.486 251.514Z" fill="#F8A62B"/>
<path d="M336.708 169.074L335.961 168.57C334.931 167.877 334.656 166.477 335.349 165.447L342.63 154.615C343.323 153.585 344.722 153.311 345.753 154.004L346.5 154.508C347.53 155.201 347.805 156.6 347.112 157.631L339.831 168.462C339.133 169.492 337.738 169.767 336.708 169.074Z" fill="#F8A62B"/>
<path d="M334.363 162.077L333.616 161.573C332.586 160.88 332.311 159.48 333.004 158.45L340.286 147.618C340.979 146.588 342.378 146.313 343.409 147.006L344.156 147.51C345.186 148.203 345.461 149.603 344.768 150.633L337.486 161.465C336.789 162.495 335.394 162.77 334.363 162.077Z" fill="#F8A62B"/>
<path d="M324.401 160.385L323.559 160.07C322.394 159.638 321.8 158.342 322.232 157.176L326.777 144.945C327.209 143.779 328.505 143.185 329.67 143.617L330.512 143.932C331.677 144.364 332.271 145.66 331.839 146.826L327.294 159.057C326.862 160.223 325.566 160.817 324.401 160.385Z" fill="#F8A62B"/>
<path d="M321.516 169.483L320.634 169.655C319.415 169.893 318.231 169.097 317.993 167.882L315.482 155.074C315.243 153.855 316.04 152.671 317.255 152.433L318.136 152.262C319.356 152.023 320.54 152.82 320.778 154.035L323.289 166.842C323.532 168.062 322.735 169.245 321.516 169.483Z" fill="#F8A62B"/>
<path d="M330.422 159.291L329.62 158.881C328.513 158.314 328.077 156.955 328.648 155.853L334.611 144.243C335.178 143.136 336.537 142.699 337.64 143.271L338.441 143.68C339.548 144.247 339.984 145.606 339.413 146.709L333.45 158.319C332.883 159.421 331.529 159.858 330.422 159.291Z" fill="#F8A62B"/>
<path d="M324.076 178.295C329.342 180.666 335.529 178.317 337.901 173.057L339.224 170.118C341.595 164.853 339.246 158.666 333.986 156.294C328.721 153.923 322.533 156.272 320.161 161.532L318.839 164.471C316.467 169.736 318.811 175.923 324.076 178.295Z" fill="#F8A62B"/>
<path d="M186.309 155.803C185.737 158.382 186.241 161.469 187.438 162.706L205.137 180.976C206.334 182.209 207.769 181.12 208.341 178.546C208.912 175.968 208.408 172.881 207.211 171.643L189.513 153.373C188.316 152.136 186.885 153.225 186.309 155.803Z" fill="#20409A"/>
<path d="M278.541 154.003C279.113 156.582 278.609 159.669 277.412 160.906L259.713 179.177C258.516 180.41 257.08 179.32 256.509 176.746C255.937 174.168 256.442 171.081 257.639 169.843L275.337 151.573C276.534 150.336 277.965 151.425 278.541 154.003Z" fill="#20409A"/>
<path d="M165.825 215.55C169.429 215.55 172.35 211.118 172.35 205.65C172.35 200.182 169.429 195.75 165.825 195.75C162.221 195.75 159.3 200.182 159.3 205.65C159.3 211.118 162.221 215.55 165.825 215.55Z" fill="#20409A"/>
<path d="M201.375 280.8C204.979 280.8 207.9 276.368 207.9 270.9C207.9 265.432 204.979 261 201.375 261C197.771 261 194.85 265.432 194.85 270.9C194.85 276.368 197.771 280.8 201.375 280.8Z" fill="#20409A"/>
<path d="M267.525 280.8C271.129 280.8 274.05 276.368 274.05 270.9C274.05 265.432 271.129 261 267.525 261C263.921 261 261 265.432 261 270.9C261 276.368 263.921 280.8 267.525 280.8Z" fill="#20409A"/>
<path d="M298.463 221.57C303.927 221.373 308.251 218.293 308.12 214.692C307.99 211.091 303.456 208.332 297.992 208.529C292.528 208.727 288.204 211.806 288.334 215.407C288.464 219.008 292.999 221.767 298.463 221.57Z" fill="#20409A"/>
<path opacity="0.6" d="M258.75 130.05C261.235 130.05 263.25 126.927 263.25 123.075C263.25 119.223 261.235 116.1 258.75 116.1C256.265 116.1 254.25 119.223 254.25 123.075C254.25 126.927 256.265 130.05 258.75 130.05Z" fill="#F8A62B"/>
<path opacity="0.6" d="M251.1 111.6C252.343 111.6 253.35 109.988 253.35 108C253.35 106.012 252.343 104.4 251.1 104.4C249.857 104.4 248.85 106.012 248.85 108C248.85 109.988 249.857 111.6 251.1 111.6Z" fill="#F8A62B"/>
<path d="M248.598 208.8H216.707C213.089 208.8 210.155 205.866 210.155 202.248V182.507C210.155 178.889 213.089 175.955 216.707 175.955H248.598C252.216 175.955 255.15 178.889 255.15 182.507V202.248C255.15 205.866 252.216 208.8 248.598 208.8Z" fill="#20409A"/>
<path d="M219.712 200.475C219.712 201.906 220.869 203.062 222.3 203.062H243.45C244.881 203.062 246.038 201.906 246.038 200.475C246.038 199.044 244.881 197.887 243.45 197.887H222.3C220.869 197.887 219.712 199.044 219.712 200.475Z" fill="#F8A62B"/>
<path d="M232.875 191.25C234.49 191.25 235.8 189.94 235.8 188.325C235.8 186.71 234.49 185.4 232.875 185.4C231.26 185.4 229.95 186.71 229.95 188.325C229.95 189.94 231.26 191.25 232.875 191.25Z" fill="#F8A62B"/>
<path d="M220.275 191.25C221.89 191.25 223.2 189.94 223.2 188.325C223.2 186.71 221.89 185.4 220.275 185.4C218.66 185.4 217.35 186.71 217.35 188.325C217.35 189.94 218.66 191.25 220.275 191.25Z" fill="#F8A62B"/>
<path d="M244.125 191.25C245.74 191.25 247.05 189.94 247.05 188.325C247.05 186.71 245.74 185.4 244.125 185.4C242.51 185.4 241.2 186.71 241.2 188.325C241.2 189.94 242.51 191.25 244.125 191.25Z" fill="#F8A62B"/>
</svg>
